<svg class="canvas" viewBox="0 0 1920 1080" preserveAspectRatio="xMaxYMid slice" xmlns="http://www.w3.org/2000/svg" version="1.1" xmlns:xlink="http://www.w3.org/1999/xlink" xmlns:svgjs="http://svgjs.dev/svgjs">
    <rect width="1920" height="1080" fill="hsl(276, 65%, 15%)"></rect>
    <defs>
        <linearGradient x1="0.5" y1="0" x2="0" y2="1" id="SvgjsLinearGradient1007">
            <stop stop-color="#28288a" offset="0"></stop>
            <stop stop-color="#140614" offset="0.1"></stop>
        </linearGradient>
        <linearGradient x1="0.5" y1="0" x2="0" y2="1" id="SvgjsLinearGradient1008">
            <stop stop-color="#28288a" offset="0"></stop>
            <stop stop-color="#140614" offset="0.22857142857142856"></stop>
        </linearGradient>
        <linearGradient x1="0.5" y1="0" x2="0" y2="1" id="SvgjsLinearGradient1009">
            <stop stop-color="#63288a" offset="0"></stop>
            <stop stop-color="#14060b" offset="0.3571428571428571"></stop>
        </linearGradient>
        <linearGradient x1="0.5" y1="0" x2="0" y2="1" id="SvgjsLinearGradient1010">
            <stop stop-color="#d4c0f2" offset="0"></stop>
            <stop stop-color="#d7429b" offset="0.48571428571428565"></stop>
        </linearGradient>
        <linearGradient x1="0.5" y1="0" x2="0" y2="1" id="SvgjsLinearGradient1011">
            <stop stop-color="#e8c0f2" offset="0"></stop>
            <stop stop-color="#d7425f" offset="0.6142857142857142"></stop>
        </linearGradient>
        <linearGradient x1="0.5" y1="0" x2="0" y2="1" id="SvgjsLinearGradient1012">
            <stop stop-color="#cac0f2" offset="0"></stop>
            <stop stop-color="#d742b9" offset="0.7428571428571429"></stop>
        </linearGradient>
        <linearGradient x1="0.5" y1="0" x2="0" y2="1" id="SvgjsLinearGradient1013">
            <stop stop-color="#dec0f2" offset="0"></stop>
            <stop stop-color="#d7427d" offset="0.8714285714285713"></stop></linearGradient>
    </defs>
    <path d="M0,-536.4292652484694C43.762045686398665,
    -521.006378381773,170.38441919696726,
    -463.51438464475194,262.572274118392,
    -443.8919440482905C354.7601290398167,
    -424.26950345182905,462.5398777483694,
    -448.1627829625464,553.1271295285485,
    -418.6946216697007C643.7143813087275,
    -389.2264603768551,711.6210081467295,
    -304.143501757526,806.0957847994664,
    -267.0829762912165C900.5705614522033,
    -230.02245082490697,1025.0277281918193,
    -212.59495481824013,1119.9757894449695,
    -196.33146887184367C1214.9238506981196,
    -180.0679829254472,1286.84830531436,
    -194.37396765317467,1375.784152318367,
    -169.50206061283768C1464.719999322374,
    -144.6301535725007,1562.888230188739,
    -75.94549252388305,1653.5908714690113,
    -47.10002662982167C1744.2935127492835,
    -18.25456073576029,1875.5984785781686,
    -4.874392145361444,1920,3.570734751530601L 1920 1080 L 0 1080 Z" fill="url(&quot;#SvgjsLinearGradient1007&quot;)"></path>
    <path d="M0,-396.89441232685135C48.75996442586117,
    -382.7189630899301,188.07128948874276,
    -346.1173612463464,292.559786555167,
    -311.841716905324C397.0482836215913,
    -277.56607256430163,513.0880398786418,
    -217.4694709043755,626.9309823985456,
    -191.24054628071713C740.7739249184493,
    -165.01162165705875,865.7181303936351,
    -177.51311896832124,975.6174416745898,
    -154.4681691633738C1085.5167529555445,
    -131.42321935842637,1184.0399109712948,
    -91.7254963235593,1286.326850084274,
    -52.97084745103259C1388.613789197253,
    -14.216198578505882,1483.7268846998438,
    42.99936583680384,1589.3390763524649,
    78.05972407178643C1694.951268005086,
    113.12008230676904,1864.889846058744,
    144.1693723110169,1920,157.39130195886298L 1920 1080 L 0 1080 Z" fill="url(&quot;#SvgjsLinearGradient1008&quot;)"></path>
    <path d="M0,-268.221107504294C52.61356368393202,-248.7678037472742,207.34746813455644,-187.53116789070114,315.6813821035921,-151.5012849621751C424.0152960726278,-115.47140203364907,537.3681205363873,-83.42878910876675,650.003483814214,-52.04180993313786C762.6388470920406,-20.654830757508982,887.8428835580447,8.258901404172917,991.4935617705515,36.82059009159816C1095.1442399830582,65.38227877902341,1171.3912740426144,95.92945026264583,1271.9075530892546,119.3283221914136C1372.4238321358948,142.7271941201814,1486.5758282319355,147.04348851825134,1594.591236050393,177.21382166420483C1702.6066438688506,207.38415481015832,1865.7652060083988,279.8275711666463,1920,300.3503210671346L 1920 1080 L 0 1080 Z" fill="url(&quot;#SvgjsLinearGradient1009&quot;)"></path><path d="M0,-143.05093681223607C49.15762581632518,-121.77307060079345,183.45115499451038,-46.8692798143576,294.9457548979511,-15.38373954358029C406.4403548013918,16.101800727197016,556.6858207877438,24.360110585570226,668.9675994206442,45.862304812427766C781.2493780535447,67.3644990392853,870.7049155991203,81.38838287071931,968.6364266953537,113.62942581756494C1066.5679377915872,145.87046876441056,1145.5401880899587,203.25066254247406,1256.5566659980443,239.30856249350146C1367.5731439061299,275.36646244452885,1524.1614051435408,296.56055159849507,1634.735294143867,329.9768255237293C1745.309183144193,363.39309944896354,1872.455882357311,421.5013092913772,1920,439.8062060449068L 1920 1080 L 0 1080 Z" fill="url(&quot;#SvgjsLinearGradient1010&quot;)"></path><path d="M0,7.698707034427571C69.29210032667002,29.455433340022818,290.39616360814045,100.46611024382273,415.7526019600202,138.23906486799905C541.1090403118999,176.01201949217537,624.0173835435395,192.50659480254546,752.1386301112783,234.33643477948544C880.2598766790171,276.1662747564254,1056.8045423831102,351.31123781612536,1184.4800813664529,389.218104729639C1312.1556203497955,427.1249716431526,1395.605210905743,425.8403930192929,1518.1918640113342,461.7776362605672C1640.7785171169255,497.7148795018415,1853.0319773352223,580.9975761911652,1920,604.8415641772848L 1920 1080 L 0 1080 Z" fill="url(&quot;#SvgjsLinearGradient1011&quot;)"></path><path d="M0,135.0452824924136C81.91844722884936,158.9055159814938,328.395607126613,228.30882851034846,491.5106833730962,278.20668342689487C654.6257596195794,328.1045383434413,815.158659449681,386.84369887869013,978.690457478899,434.432411991692C1142.222255508117,482.02112510469385,1315.8165477948876,511.7320551166904,1472.7014715484045,563.7389621049059C1629.5863953019214,615.7458690931214,1845.4502452580673,716.0180386183051,1920,746.473853920985L 1920 1080 L 0 1080 Z" fill="url(&quot;#SvgjsLinearGradient1012&quot;)"></path><path d="M0,224.13041740728028C59.48340865882732,244.37315338541163,250.88105655184444,313.5147256910333,356.9004519529639,345.58683327606843C462.9198473540834,377.6589408611036,533.7324939927819,379.7791510234742,636.116372406717,416.5630629174914C738.5002508206521,453.3469748115086,869.6604871810706,530.7052544693261,971.2037224365744,566.2903046401717C1072.7469576920782,601.8753548110174,1141.2364628578005,596.1050885107339,1245.3757839397397,630.0733639425654C1349.515105021679,664.0416393743968,1483.6022795848326,733.4714007013268,1596.0396489282093,770.0999572311603C1708.477018271586,806.7285137609937,1866.0066081547016,836.5539121398318,1920,849.8447031215661L 1920 1080 L 0 1080 Z" fill="url(&quot;#SvgjsLinearGradient1013&quot;)"></path></svg>